<?xml version="1.0" standalone="no"?>
<!DOCTYPE svg PUBLIC "-//W3C//DTD SVG 20010904//EN"
 "http://www.w3.org/TR/2001/REC-SVG-20010904/DTD/svg10.dtd">
<svg version="1.0" xmlns="http://www.w3.org/2000/svg"
 width="640.000000pt" height="640.000000pt" viewBox="0 0 640.000000 640.000000"
 preserveAspectRatio="xMidYMid meet">
<metadata>
Created by potrace 1.14, written by Peter Selinger 2001-2017
</metadata>
<g transform="translate(0.000000,640.000000) scale(0.100000,-0.100000)"
fill="#000000" stroke="none">
<path d="M3000 6060 c-1022 -76 -1922 -682 -2370 -1595 -396 -808 -398 -1725
-5 -2530 149 -304 307 -527 545 -766 230 -231 450 -392 730 -533 314 -159 609
-250 970 -298 125 -16 546 -16 670 0 560 76 1012 263 1450 600 110 85 387 362
472 472 335 435 525 894 600 1450 8 57 12 194 12 345 -1 278 -18 429 -75 663
-98 401 -300 811 -556 1131 -460 573 -1146 955 -1878 1045 -157 19 -421 27
-565 16z m-600 -1225 c169 -40 306 -101 433 -193 89 -64 207 -183 261 -263
l36 -54 0 -1177 c0 -648 -4 -1178 -8 -1178 -4 0 -26 18 -47 41 -22 23 -76 69
-120 104 -280 219 -594 341 -931 362 l-104 6 0 1173 0 1174 23 5 c113 27 343
27 457 0z m1977 14 c43 -5 86 -12 96 -15 16 -5 17 -70 17 -1178 l0 -1173 -106
-6 c-380 -24 -750 -187 -1041 -461 l-53 -49 0 1187 0 1187 55 74 c104 138 244
252 406 329 203 98 417 134 626 105z m-2589 -1280 l2 -1187 31 -6 c17 -3 53
-6 79 -6 115 0 371 -58 532 -120 268 -103 547 -298 721 -504 l42 -50 -65 37
c-455 262 -873 383 -1422 413 l-118 6 0 1304 0 1305 98 -3 97 -3 3 -1186z
m3040 -116 l2 -1303 -22 0 c-72 0 -355 -22 -444 -35 -366 -51 -734 -181 -1084
-382 l-65 -37 51 59 c146 169 364 334 576 435 187 89 436 160 613 175 39 3 94
8 123 11 l52 5 0 1190 0 1190 98 -3 97 -3 3 -1302z m-3378 -208 l0 -1235 23 0
c12 0 51 5 87 10 101 16 391 13 513 -4 364 -52 690 -186 977 -402 55 -41 100
-77 100 -79 0 -2 -33 7 -72 21 -366 126 -846 189 -1243 164 -174 -11 -400 -40
-509 -65 -33 -8 -64 -15 -68 -15 -5 0 -8 639 -8 1420 l0 1420 100 0 100 0 0
-1235z m3710 -186 l0 -1421 -22 6 c-48 13 -248 46 -373 62 -160 20 -532 23
-695 5 -255 -27 -494 -77 -719 -150 l-94 -30 34 29 c113 98 346 239 505 306
350 146 717 196 1102 149 l62 -8 0 1237 0 1236 100 0 100 0 0 -1421z"/>
</g>
</svg>
